<svg width="40" height="40" viewBox="0 0 40 40" fill="none" xmlns="http://www.w3.org/2000/svg">
<path d="M20 35.0001L17.5833 32.8334C14.7778 30.3056 12.4583 28.1251 10.625 26.2917C8.79166 24.4584 7.33333 22.8195 6.25 21.3751C5.16666 19.9029 4.40277 18.5556 3.95833 17.3334C3.54166 16.1112 3.33333 14.8612 3.33333 13.5834C3.33333 10.9723 4.20833 8.79175 5.95833 7.04175C7.70833 5.29175 9.88889 4.41675 12.5 4.41675C13.9444 4.41675 15.3194 4.7223 16.625 5.33342C17.9306 5.94453 19.0556 6.80564 20 7.91675C20.9444 6.80564 22.0694 5.94453 23.375 5.33342C24.6806 4.7223 26.0556 4.41675 27.5 4.41675C30.1111 4.41675 32.2917 5.29175 34.0417 7.04175C35.7917 8.79175 36.6667 10.9723 36.6667 13.5834C36.6667 14.8612 36.4444 16.1112 36 17.3334C35.5833 18.5556 34.8333 19.9029 33.75 21.3751C32.6667 22.8195 31.2083 24.4584 29.375 26.2917C27.5417 28.1251 25.2222 30.3056 22.4167 32.8334L20 35.0001ZM20 30.5001C22.6667 28.1112 24.8611 26.0695 26.5833 24.3751C28.3056 22.6529 29.6667 21.1667 30.6667 19.9167C31.6667 18.639 32.3611 17.514 32.75 16.5417C33.1389 15.5418 33.3333 14.5556 33.3333 13.5834C33.3333 11.9167 32.7778 10.5279 31.6667 9.41675C30.5556 8.30564 29.1667 7.75008 27.5 7.75008C26.1944 7.75008 24.9861 8.12508 23.875 8.87508C22.7639 9.5973 22 10.5279 21.5833 11.6667H18.4167C18 10.5279 17.2361 9.5973 16.125 8.87508C15.0139 8.12508 13.8056 7.75008 12.5 7.75008C10.8333 7.75008 9.44444 8.30564 8.33333 9.41675C7.22222 10.5279 6.66666 11.9167 6.66666 13.5834C6.66666 14.5556 6.86111 15.5418 7.25 16.5417C7.63888 17.514 8.33333 18.639 9.33333 19.9167C10.3333 21.1667 11.6944 22.6529 13.4167 24.3751C15.1389 26.0695 17.3333 28.1112 20 30.5001Z" fill="#090909"/>
</svg>
