<svg xmlns="http://www.w3.org/2000/svg" xmlns:xlink="http://www.w3.org/1999/xlink" width="1920" zoomAndPan="magnify" viewBox="0 0 1440 809.999993" height="1080" preserveAspectRatio="xMidYMid meet" version="1.0"><defs><filter x="0%" y="0%" width="100%" height="100%" id="bb550743df"><feColorMatrix values="0 0 0 0 1 0 0 0 0 1 0 0 0 0 1 0 0 0 1 0" color-interpolation-filters="sRGB"/></filter><mask id="2b4eeb0664"><g filter="url(#bb550743df)"><rect x="-144" width="1728" fill="#000000" y="-80.999999" height="971.999992" fill-opacity="0.42"/></g></mask><clipPath id="cfad033b00"><rect x="0" width="752" y="0" height="766"/></clipPath></defs><g mask="url(#2b4eeb0664)"><g transform="matrix(1, 0, 0, 1, 333, 12)"><g clip-path="url(#cfad033b00)"><path fill="#ffffff" d="M 504.753906 658.949219 C 517.152344 615.332031 497.351562 567.792969 478.316406 529.09375 C 468.054688 508.226562 454.632812 490.660156 438.914062 473.628906 C 431.488281 465.582031 430.6875 456.011719 437.761719 447.511719 C 439.082031 445.929688 448.695312 433.925781 459.523438 438.507812 C 474.347656 443.085938 489.027344 448.160156 503.875 452.65625 C 518.960938 457.230469 533.925781 463.011719 549.382812 465.339844 C 589.410156 471.375 626.765625 461.351562 661.089844 441.035156 C 687.289062 425.523438 707.945312 402.683594 717.699219 373.585938 C 720.273438 365.921875 722.335938 358.039062 723.023438 349.960938 C 725.601562 319.707031 702.8125 290.960938 678.414062 275.566406 C 653.683594 259.953125 626.410156 257.984375 598.914062 261.507812 C 553.367188 267.351562 471.757812 318.53125 467.367188 321.855469 C 458.765625 328.363281 453.824219 332.980469 444.292969 327.367188 C 435.171875 321.988281 433.734375 313.933594 439.222656 304.300781 C 465.246094 258.625 487.253906 211.222656 496.535156 159.050781 C 501.773438 129.570312 504.226562 99.882812 490.035156 71.542969 C 477.972656 47.457031 457.292969 34.09375 432.066406 30.960938 C 395.847656 26.464844 365.75 42.660156 341.179688 67.902344 C 324.972656 84.542969 317.636719 106.726562 311.621094 128.863281 C 299.667969 172.808594 300.296875 270.078125 300.679688 273.671875 C 301.675781 283.085938 300.042969 290.300781 292.253906 292.523438 C 278.980469 296.316406 270.496094 292.808594 266.621094 282.902344 C 263.84375 275.792969 258.039062 264.753906 254.058594 258.25 C 238.066406 232.140625 218.363281 209.0625 196.613281 187.4375 C 181.078125 171.984375 163.097656 161.371094 142.550781 155.113281 C 111.542969 145.664062 79.460938 163.535156 70.359375 194.609375 C 65.203125 212.207031 65.359375 230.207031 69.425781 247.707031 C 84.015625 310.535156 115.265625 360.578125 178.152344 385.535156 C 187.277344 389.15625 190.738281 395.40625 188.625 402.828125 C 186.578125 410.019531 180.496094 412.6875 171.507812 412.972656 C 161.859375 413.277344 151.675781 413.792969 142.792969 417.078125 C 130.261719 421.714844 118.25 428.234375 106.824219 435.261719 C 71.578125 456.9375 46.585938 487.078125 34.359375 527.015625 C 21.058594 570.453125 31.050781 601.601562 69.863281 632.246094 C 75.441406 636.65625 85.417969 640.21875 92.570312 641.070312 C 133.59375 645.953125 168.039062 629.304688 195.457031 601.570312 C 219.316406 577.425781 235.96875 547.277344 243.125 513.027344 C 245.183594 503.171875 251.980469 498.363281 260.175781 500.191406 C 267.941406 501.925781 271.257812 508.582031 270.03125 518.460938 C 268.316406 532.304688 266.082031 546.191406 265.808594 560.09375 C 265.339844 584.71875 270.617188 608.554688 280.074219 631.242188 C 302.664062 685.472656 341.367188 722.140625 399.550781 734.5 C 429.683594 740.902344 456.816406 732.925781 477.867188 708.136719 C 489.171875 694.808594 499.558594 677.242188 504.753906 658.949219 Z M 488.828125 273.867188 C 491.949219 271.957031 494.125 270.742188 495.382812 270.007812 C 529.242188 250.160156 564.476562 237.238281 603.167969 233.484375 C 642.632812 229.65625 680.035156 237.167969 710.117188 265.261719 C 733.292969 286.910156 751.730469 311.804688 750.472656 345.953125 C 749.375 375.964844 739.015625 402.632812 719.859375 425.722656 C 683.585938 469.4375 635.734375 489.75 580.15625 493.921875 C 549.246094 496.25 519.984375 489.089844 491.585938 477.523438 C 486.632812 475.503906 478.871094 472.207031 473.132812 470.316406 C 474.59375 472.5 480.011719 477.925781 481.066406 479.183594 C 486.257812 485.355469 491.546875 494.328125 495.542969 501.308594 C 499.878906 508.902344 501.925781 513.855469 505.40625 521.871094 C 517.570312 549.855469 528.203125 579.28125 533.339844 609.445312 C 539.894531 648 529.839844 688.210938 505.195312 718.773438 C 498.941406 726.527344 491.921875 733.65625 484.390625 740.171875 C 458.601562 762.464844 427.1875 768.5 394.617188 761.539062 C 325.203125 746.707031 279.46875 703.277344 253.433594 638.375 C 247.414062 623.375 242.960938 606.636719 239.132812 590.582031 C 236.34375 594.113281 233.777344 597.828125 231.484375 601.328125 C 209.941406 634.191406 178.679688 652.332031 142.507812 663.558594 C 91.433594 679.414062 54.703125 666.011719 23.257812 622.746094 C -1.808594 588.257812 -3.320312 551.335938 10.058594 512.679688 C 25.136719 469.140625 53.414062 435.980469 92.308594 411.792969 C 103.703125 404.710938 115.742188 398.664062 128 391.859375 C 126.742188 390.789062 125.902344 389.753906 124.90625 388.835938 C 80.640625 348.175781 50.453125 302.753906 40.96875 243.773438 C 38.03125 225.46875 38.734375 207.152344 43.382812 189.042969 C 54.796875 144.550781 100.664062 116.503906 145.359375 127.464844 C 173.671875 134.414062 197.828125 148.769531 217.957031 170.171875 C 235.875 189.226562 254.863281 207.304688 268.175781 230.1875 C 268.632812 230.96875 269.816406 232.414062 271.164062 234.457031 C 271.9375 220.546875 272.679688 206.308594 273.5 193.523438 C 275.660156 160.003906 281.738281 127.28125 293.527344 95.722656 C 306.914062 59.878906 332.339844 31.070312 367.558594 15.636719 C 384.886719 8.050781 403.484375 3.300781 422.410156 2.460938 C 484.027344 -0.269531 526.035156 57.757812 527.269531 114.394531 C 528.265625 160.429688 516.605469 203.558594 498.808594 245.425781 C 495.472656 253.269531 493.078125 264 488.828125 273.867188 " fill-opacity="1" fill-rule="nonzero"/><path fill="#ffffff" d="M 381.308594 406.335938 C 381.054688 416.96875 376.078125 426.832031 364.605469 432.003906 C 353.21875 437.140625 339.1875 434.636719 329.253906 427.066406 C 318.234375 418.65625 308.914062 402.15625 313.445312 388.277344 C 317.726562 375.164062 331.171875 364.230469 345.203125 364.238281 C 365.992188 364.246094 381.78125 386.613281 381.308594 406.335938 " fill-opacity="1" fill-rule="nonzero"/></g></g></g></svg>