<svg width="200" height="200" viewBox="0 0 200 200" fill="none" xmlns="http://www.w3.org/2000/svg">
<mask id="mask0_139_1135" style="mask-type:luminance" maskUnits="userSpaceOnUse" x="81" y="114" width="87" height="86">
<path d="M81.6964 114.054H167.722V200H81.6964V114.054Z" fill="white"/>
</mask>
<g mask="url(#mask0_139_1135)">
<path d="M139.456 187.952C140.866 183.067 138.614 177.74 136.451 173.403C135.284 171.064 133.757 169.095 131.97 167.186C131.125 166.285 131.035 165.212 131.841 164.26C131.991 164.082 133.083 162.737 134.313 163.249C136 163.762 137.666 164.331 139.356 164.835C141.071 165.348 142.773 165.997 144.529 166.258C149.079 166.934 153.326 165.811 157.229 163.534C160.206 161.794 162.555 159.235 163.665 155.975C163.957 155.115 164.191 154.231 164.269 153.327C164.564 149.936 161.972 146.717 159.199 144.991C156.387 143.239 153.286 143.02 150.159 143.414C144.983 144.069 135.706 149.805 135.206 150.176C134.229 150.908 133.667 151.424 132.581 150.796C131.546 150.194 131.381 149.29 132.006 148.211C134.966 143.091 137.465 137.779 138.52 131.933C139.116 128.63 139.396 125.301 137.784 122.126C136.412 119.428 134.06 117.928 131.191 117.579C127.074 117.075 123.652 118.889 120.861 121.717C119.018 123.585 118.185 126.069 117.499 128.55C116.14 133.474 116.212 144.375 116.254 144.778C116.368 145.833 116.182 146.642 115.298 146.891C113.788 147.315 112.823 146.921 112.383 145.812C112.068 145.015 111.409 143.779 110.955 143.049C109.139 140.124 106.898 137.538 104.426 135.114C102.658 133.382 100.616 132.194 98.279 131.491C94.7544 130.433 91.1065 132.437 90.0719 135.917C89.4855 137.891 89.5036 139.907 89.9667 141.87C91.6237 148.91 95.1754 154.516 102.327 157.315C103.364 157.721 103.755 158.42 103.518 159.253C103.283 160.057 102.592 160.356 101.569 160.389C100.474 160.424 99.3165 160.481 98.3061 160.848C96.8806 161.367 95.5153 162.099 94.2161 162.888C90.2103 165.316 87.3683 168.692 85.9789 173.169C84.4662 178.036 85.603 181.528 90.0148 184.961C90.6494 185.456 91.7831 185.854 92.5951 185.951C97.2595 186.497 101.175 184.632 104.294 181.522C107.006 178.819 108.898 175.439 109.713 171.6C109.948 170.498 110.72 169.958 111.65 170.163C112.534 170.358 112.91 171.102 112.771 172.211C112.576 173.761 112.323 175.318 112.29 176.877C112.239 179.634 112.838 182.308 113.914 184.849C116.483 190.926 120.882 195.035 127.495 196.422C130.921 197.139 134.006 196.244 136.4 193.466C137.684 191.972 138.866 190.004 139.456 187.952ZM137.645 144.801C138 144.585 138.247 144.449 138.391 144.369C142.24 142.142 146.246 140.696 150.643 140.275C155.13 139.845 159.382 140.687 162.802 143.835C165.436 146.26 167.532 149.053 167.391 152.877C167.265 156.241 166.089 159.23 163.911 161.818C159.785 166.718 154.345 168.992 148.027 169.46C144.514 169.721 141.188 168.917 137.958 167.622C137.396 167.397 136.514 167.026 135.862 166.816C136.027 167.059 136.644 167.666 136.764 167.809C137.354 168.499 137.955 169.504 138.409 170.287C138.902 171.138 139.134 171.695 139.531 172.593C140.911 175.727 142.12 179.026 142.707 182.406C143.449 186.728 142.307 191.234 139.507 194.658C138.794 195.527 137.997 196.327 137.14 197.056C134.208 199.555 130.638 200.231 126.936 199.452C119.042 197.789 113.845 192.921 110.886 185.649C110.2 183.968 109.695 182.092 109.259 180.292C108.94 180.689 108.648 181.104 108.39 181.496C105.939 185.181 102.387 187.211 98.273 188.471C92.4658 190.247 88.2916 188.744 84.7158 183.897C81.8679 180.031 81.6965 175.893 83.2152 171.562C84.9294 166.682 88.1442 162.968 92.568 160.255C93.8612 159.464 95.2296 158.785 96.625 158.023C96.4806 157.901 96.3874 157.786 96.2731 157.685C91.2418 153.126 87.8074 148.036 86.7308 141.428C86.397 139.376 86.4751 137.322 87.0044 135.294C88.3036 130.308 93.5154 127.166 98.5978 128.393C101.816 129.173 104.561 130.779 106.85 133.181C108.889 135.315 111.048 137.34 112.561 139.904C112.612 139.993 112.747 140.153 112.901 140.384C112.988 138.825 113.072 137.23 113.165 135.795C113.412 132.039 114.101 128.372 115.442 124.836C116.964 120.819 119.854 117.591 123.86 115.862C125.829 115.011 127.944 114.478 130.094 114.386C137.098 114.078 141.877 120.582 142.015 126.929C142.129 132.087 140.803 136.922 138.779 141.612C138.4 142.492 138.129 143.693 137.645 144.801Z" fill="#F87B9C"/>
</g>
<path d="M125.423 159.645C125.393 160.836 124.828 161.942 123.523 162.52C122.229 163.098 120.633 162.817 119.505 161.969C118.251 161.026 117.192 159.176 117.706 157.62C118.194 156.152 119.721 154.925 121.318 154.928C123.679 154.928 125.474 157.436 125.423 159.645Z" fill="#F87B9C"/>
<path d="M66.5701 147.168C70.8195 147.105 74.0824 148.104 76.362 150.168C78.6476 152.231 79.6942 155.421 79.5017 159.737C79.3814 163.431 78.413 166.994 76.6026 170.433C74.7982 173.872 72.3382 176.655 69.2286 178.781C65.8032 181.161 62.0741 182.397 58.0412 182.492C54.0144 182.587 50.0687 182.101 46.2043 181.034C41.5038 179.723 37.7596 177.66 34.9688 174.844C32.178 172.031 30.2563 168.767 29.2067 165.049C28.1632 161.326 27.8474 157.386 28.2564 153.227C28.6714 149.062 29.718 144.962 31.3961 140.93C33.0802 136.899 35.2515 133.163 37.916 129.725C40.5866 126.286 43.648 123.392 47.1065 121.045C50.5619 118.697 54.3031 117.179 58.3299 116.491C62.3628 115.803 66.5039 116.18 70.7563 117.618C72.5276 118.243 73.7937 119.183 74.5576 120.44C75.3185 121.691 75.6824 123.049 75.6523 124.519C75.6192 125.989 75.2553 127.35 74.5576 128.598C73.8599 129.849 72.8615 130.741 71.5623 131.278C70.2631 131.809 68.7534 131.788 67.0392 131.219C63.9898 130.16 61.0546 130.163 58.2337 131.231C55.4098 132.292 52.8385 134.026 50.5228 136.436C48.2132 138.84 46.3276 141.606 44.869 144.737C43.4075 147.861 42.5173 150.986 42.1985 154.116C41.8857 157.241 42.3308 160.022 43.5338 162.464C44.2315 163.967 45.3562 165.221 46.914 166.223C48.4688 167.219 50.2131 167.925 52.1468 168.334C54.0775 168.737 55.9481 168.782 57.7525 168.464C59.563 168.15 61.0756 167.397 62.2876 166.211C63.1688 165.334 63.8996 164.24 64.477 162.927C64.5311 162.746 64.5762 162.497 64.6093 162.18C64.6394 161.865 64.6875 161.551 64.7536 161.243C64.6875 161.243 64.6093 161.243 64.5131 161.243C64.4228 161.243 64.3476 161.243 64.2845 161.243C64.0259 161.308 63.7853 161.323 63.5627 161.29C63.3462 161.261 63.1086 161.243 62.853 161.243C61.7764 162.366 60.381 163.087 58.6668 163.401C56.9496 163.709 55.2805 163.505 53.6625 162.784C52.0506 162.067 50.8958 160.706 50.1981 158.705C49.2417 156.019 49.2116 153.909 50.1018 152.373C50.992 150.841 52.4024 149.702 54.3362 148.958C56.2669 148.208 58.36 147.722 60.6155 147.5C62.868 147.28 64.8529 147.168 66.5701 147.168Z" fill="#F87B9C"/>
<path d="M78.4217 96.5873C80.3283 98.1941 81.3719 99.955 81.5493 101.876C81.7237 103.791 81.2786 105.558 80.214 107.176C79.1554 108.798 77.724 110.102 75.9195 111.09C74.1211 112.071 72.1573 112.536 70.0251 112.489C67.8989 112.441 65.881 111.611 63.9743 109.999C58.9039 105.644 53.4757 101.79 47.6865 98.4372C41.8944 95.0873 35.8436 92.2592 29.5341 89.9588C30.295 95.114 31.0649 100.228 31.8438 105.303C32.6197 110.372 33.3866 115.486 34.1414 120.647C34.5414 123.131 34.2046 125.248 33.1309 127.003C32.0543 128.764 30.5927 130.122 28.7402 131.07C26.8877 132.019 24.981 132.449 23.0262 132.363C21.0684 132.283 19.3212 131.657 17.7814 130.489C16.2477 129.327 15.2823 127.504 14.8823 125.023C13.4689 115.56 11.8659 106.011 10.0706 96.3739C8.27216 86.7393 7.25267 77.1522 7.00306 67.6185C6.8587 62.7656 7.55641 57.8535 9.09617 52.8791C10.642 47.8988 13.0659 43.5054 16.3619 39.6931C19.664 35.8748 23.9465 33.278 29.2093 31.9024C32.8482 30.9005 36.4992 30.7848 40.1561 31.5586C43.813 32.3264 47.1031 33.776 50.0323 35.9104C52.9674 38.0448 55.241 40.7307 56.8529 43.9619C58.4649 47.1873 59.0934 50.7536 58.7415 54.6578C58.3716 58.476 57.2198 62.318 55.2891 66.1837C53.3554 70.0434 50.9044 73.5534 47.9391 76.7135C58.7957 81.8924 68.9575 88.518 78.4217 96.5873ZM39.0735 52.0728C38.3337 50.4541 37.4495 49.6508 36.415 49.6656C35.3804 49.6834 34.3279 50.2111 33.2633 51.2546C32.1956 52.2921 31.2002 53.5372 30.28 54.9898C29.3567 56.4454 28.6019 57.8416 28.0184 59.1756C27.432 60.5037 27.0681 61.4524 26.9238 62.0215C26.6651 64.0374 26.5569 66.2845 26.599 68.7568C28.259 68.1165 29.6785 67.239 30.8574 66.1244C32.0363 65.0097 33.1339 63.7172 34.1534 62.2468C34.5384 61.6302 35.2 60.6401 36.1383 59.2705C37.0826 57.895 37.8886 56.5135 38.5562 55.1202C39.2208 53.721 39.3922 52.7071 39.0735 52.0728Z" fill="white"/>
<path d="M71.4372 92.2816C73.3438 93.8883 74.3874 95.6492 74.5648 97.5702C74.7392 99.4852 74.2941 101.252 73.2295 102.871C72.171 104.492 70.7395 105.797 68.935 106.784C67.1366 107.765 65.1728 108.23 63.0406 108.183C60.9144 108.136 58.8965 107.306 56.9898 105.693C51.9194 101.338 46.4912 97.4842 40.702 94.1314C34.9099 90.7815 28.8591 87.9534 22.5496 85.653C23.3105 90.8082 24.0804 95.9219 24.8593 100.997C25.6352 106.066 26.4021 111.18 27.1569 116.341C27.5569 118.825 27.2201 120.942 26.1464 122.697C25.0698 124.458 23.6082 125.816 21.7557 126.764C19.9032 127.713 17.9965 128.143 16.0417 128.057C14.0839 127.977 12.3367 127.351 10.7969 126.183C9.26316 125.021 8.2978 123.198 7.89782 120.717C6.48437 111.254 4.88145 101.706 3.08606 92.0681C1.28766 82.4336 0.26817 72.8464 0.0185597 63.3127C-0.125793 58.4598 0.571913 53.5477 2.11168 48.5733C3.65746 43.593 6.08138 39.1996 9.37744 35.3873C12.6795 31.5691 16.962 28.9722 22.2248 27.5967C25.8637 26.5947 29.5147 26.4791 33.1716 27.2528C36.8286 28.0206 40.1186 29.4702 43.0478 31.6046C45.9829 33.7391 48.2565 36.4249 49.8684 39.6562C51.4804 42.8815 52.1089 46.4478 51.757 50.352C51.3871 54.1702 50.2353 58.0122 48.3046 61.8779C46.3709 65.7376 43.9199 69.2476 40.9546 72.4077C51.8112 77.5866 61.973 84.2122 71.4372 92.2816ZM32.089 47.767C31.3492 46.1484 30.465 45.345 29.4305 45.3598C28.3959 45.3776 27.3434 45.9053 26.2788 46.9488C25.2111 47.9863 24.2157 49.2314 23.2955 50.684C22.3722 52.1396 21.6174 53.5358 21.0339 54.8699C20.4475 56.1979 20.0836 57.1466 19.9393 57.7158C19.6806 59.7316 19.5724 61.9787 19.6145 64.451C21.2745 63.8107 22.694 62.9332 23.8729 61.8186C25.0518 60.7039 26.1494 59.4114 27.1689 57.9411C27.5539 57.3244 28.2155 56.3343 29.1538 54.9647C30.0981 53.5892 30.9041 52.2078 31.5717 50.8144C32.2363 49.4152 32.4077 48.4014 32.089 47.767Z" fill="#5DCDB2"/>
<path d="M120.718 60.4697C122.874 60.0666 124.73 60.3008 126.287 61.1693C127.842 62.032 129.012 63.2326 129.8 64.7742C130.585 66.3098 130.961 67.9224 130.931 69.6122C130.907 71.3049 130.371 72.8227 129.331 74.1656C128.287 75.5115 126.69 76.3919 124.543 76.8099C119.482 77.7289 114.475 78.8851 109.518 80.2843C104.568 81.6776 99.6845 83.3377 94.8667 85.2646C93.366 85.8338 91.7029 86.0413 89.8745 85.8812C88.052 85.7241 86.428 85.1579 85.0026 84.1856C83.5741 83.2132 82.7801 81.7132 82.6207 79.6795C81.5291 69.381 80.5667 59.0468 79.7337 48.683C78.9006 38.3132 78.1999 27.9168 77.6285 17.4967C77.5564 16.216 77.7488 15.0658 78.2059 14.046C78.5608 12.8928 79.2044 11.8493 80.1427 10.9155C81.087 9.97579 82.3621 9.27914 83.968 8.82854C91.8744 6.80676 99.8649 5.14666 107.943 3.84822C110.114 3.50137 111.985 3.783 113.548 4.69013C115.118 5.59133 116.297 6.81862 117.085 8.36608C117.87 9.90761 118.246 11.5262 118.216 13.216C118.183 14.8998 117.641 16.3998 116.592 17.7101C115.539 19.0145 113.927 19.8416 111.756 20.1884C106.222 21.06 100.62 22.139 94.9509 23.4256C95.0712 25.6164 95.1945 27.8071 95.3238 29.9949C95.4501 32.1857 95.6125 34.3675 95.805 36.5405C98.8364 35.9328 101.787 35.4495 104.659 35.0938C106.911 34.8181 109.031 35.2005 111.022 36.244C113.019 37.2816 114.294 38.9951 114.848 41.3904C115.175 42.7659 115.103 44.1977 114.631 45.6829C114.165 47.1622 113.398 48.4428 112.333 49.5249C111.275 50.6099 109.988 51.2443 108.472 51.434C104.638 51.9261 100.839 52.5961 97.0801 53.4499C97.2545 55.5546 97.444 57.692 97.6455 59.865C97.844 62.0409 98.0334 64.1753 98.2109 66.2682C101.892 65.0587 105.591 63.9737 109.314 63.0073C113.043 62.035 116.844 61.1901 120.718 60.4697Z" fill="white"/>
<path d="M114.708 56.7651C116.865 56.362 118.72 56.5962 120.278 57.4648C121.833 58.3274 123.003 59.528 123.791 61.0696C124.576 62.6052 124.952 64.2178 124.921 65.9076C124.897 67.6003 124.362 69.1181 123.322 70.461C122.278 71.8069 120.681 72.6873 118.534 73.1053C113.472 74.0243 108.465 75.1805 103.509 76.5797C98.559 77.973 93.6751 79.6331 88.8573 81.56C87.3566 82.1292 85.6935 82.3367 83.8651 82.1766C82.0426 82.0195 80.4186 81.4533 78.9932 80.481C77.5647 79.5086 76.7707 78.0086 76.6113 75.975C75.5197 65.6764 74.5573 55.3422 73.7243 44.9784C72.8912 34.6086 72.1905 24.2122 71.6191 13.7921C71.547 12.5114 71.7394 11.3612 72.1965 10.3414C72.5514 9.18825 73.195 8.14475 74.1333 7.21094C75.0776 6.2712 76.3527 5.57455 77.9586 5.12395C85.865 3.10217 93.8555 1.44207 101.933 0.143626C104.105 -0.203217 105.975 0.0784074 107.539 0.985538C109.109 1.88674 110.288 3.11403 111.076 4.66149C111.861 6.20302 112.236 7.82162 112.206 9.51137C112.173 11.1952 111.632 12.6952 110.582 14.0055C109.53 15.3099 107.918 16.137 105.747 16.4838C100.213 17.3554 94.6103 18.4345 88.9415 19.721C89.0618 21.9118 89.1851 24.1025 89.3144 26.2903C89.4407 28.4811 89.6031 30.6629 89.7956 32.8359C92.827 32.2282 95.7772 31.745 98.6492 31.3892C100.902 31.1135 103.022 31.4959 105.013 32.5394C107.01 33.577 108.285 35.2905 108.838 37.6858C109.166 39.0613 109.094 40.4931 108.622 41.9783C108.155 43.4576 107.389 44.7383 106.324 45.8203C105.265 46.9053 103.978 47.5397 102.463 47.7294C98.6282 48.2215 94.8299 48.8915 91.0707 49.7453C91.2451 51.85 91.4346 53.9874 91.6361 56.1604C91.8346 58.3363 92.024 60.4707 92.2015 62.5637C95.8825 61.3542 99.5815 60.2692 103.305 59.3027C107.034 58.3304 110.835 57.4855 114.708 56.7651Z" fill="#5DCDB2"/>
<path d="M186.678 99.0426C188.753 97.9131 190.69 97.5574 192.488 97.9754C194.293 98.3874 195.833 99.2738 197.108 100.632C198.383 101.983 199.249 103.555 199.706 105.339C200.169 107.118 200.085 108.882 199.453 110.628C198.819 112.377 197.46 113.776 195.376 114.825C191.613 116.912 187.677 118.709 183.563 120.209C179.455 121.712 175.265 122.684 170.992 123.126C166.724 123.571 162.442 123.167 158.145 121.916C152.578 120.227 147.944 117.253 144.239 112.999C140.539 108.748 138.161 103.821 137.093 98.2244C136.14 92.6927 136.305 87.1313 137.586 81.5403C138.861 75.9523 141.087 70.7822 144.263 66.0302C147.444 61.2811 151.387 57.285 156.087 54.0418C160.785 50.7928 165.991 48.7265 171.702 47.8401C174.059 47.5496 176.08 47.8935 177.764 48.8718C179.449 49.8441 180.715 51.1604 181.566 52.8205C182.414 54.4746 182.82 56.2089 182.781 58.0261C182.748 59.8374 182.167 61.4471 181.036 62.8522C179.906 64.2604 178.161 65.1053 175.804 65.3898C171.623 66.0242 167.906 67.6755 164.652 70.3464C161.404 73.0115 158.893 76.2724 157.122 80.1292C155.357 83.9801 154.578 87.9732 154.788 92.1057C154.924 95.8617 155.778 98.6928 157.351 100.596C158.92 102.493 160.89 103.712 163.257 104.248C165.63 104.779 168.207 104.85 170.992 104.462C173.783 104.067 176.537 103.356 179.256 102.327C181.981 101.302 184.456 100.205 186.678 99.0426Z" fill="white"/>
<path d="M180.221 95.0617C182.296 93.9323 184.233 93.5765 186.031 93.9945C187.835 94.4066 189.375 95.293 190.65 96.6507C191.925 98.0025 192.791 99.5737 193.249 101.358C193.712 103.137 193.628 104.901 192.996 106.647C192.361 108.396 191.002 109.795 188.918 110.845C185.156 112.932 181.219 114.728 177.105 116.228C172.997 117.731 168.808 118.703 164.534 119.145C160.267 119.59 155.984 119.187 151.687 117.936C146.12 116.246 141.486 113.273 137.781 109.019C134.082 104.767 131.703 99.8405 130.636 94.2436C129.682 88.7118 129.848 83.1505 131.129 77.5595C132.404 71.9714 134.629 66.8014 137.805 62.0493C140.987 57.3002 144.929 53.3041 149.63 50.061C154.327 46.8119 159.533 44.7457 165.244 43.8593C167.602 43.5688 169.623 43.9127 171.307 44.8909C172.991 45.8633 174.257 47.1795 175.108 48.8396C175.956 50.4938 176.362 52.228 176.323 54.0452C176.29 55.8565 175.71 57.4663 174.579 58.8714C173.448 60.2795 171.704 61.1244 169.346 61.409C165.166 62.0434 161.449 63.6946 158.195 66.3656C154.947 69.0307 152.436 72.2916 150.664 76.1484C148.899 79.9992 148.12 83.9924 148.331 88.1249C148.466 91.8809 149.32 94.7119 150.893 96.6151C152.463 98.5124 154.433 99.7308 156.799 100.267C159.172 100.798 161.75 100.869 164.534 100.481C167.325 100.087 170.08 99.3751 172.799 98.3464C175.523 97.3207 177.998 96.2238 180.221 95.0617Z" fill="#5DCDB2"/>
</svg>
